<?xml version="1.0"?><svg width="455.62186" height="617.37543" xmlns="http://www.w3.org/2000/svg" xmlns:xlink="http://www.w3.org/1999/xlink">
 <title>Sunny - Weather Ed</title>
 <defs>
  <filter id="filter3227">
   <feGaussianBlur id="feGaussianBlur3229" stdDeviation="2.571429"/>
  </filter>
  <linearGradient id="linearGradient3359">
   <stop stop-color="#ffffff" id="stop3361" offset="0"/>
   <stop stop-color="#ffffff" stop-opacity="0" id="stop3363" offset="1"/>
  </linearGradient>
  <linearGradient id="linearGradient3272">
   <stop stop-color="#ffffff" stop-opacity="0.375" id="stop3274" offset="0"/>
   <stop stop-color="#ffffff" stop-opacity="0" id="stop3276" offset="1"/>
  </linearGradient>
  <linearGradient id="linearGradient3249">
   <stop stop-color="#ffffff" id="stop3251" offset="0"/>
   <stop stop-color="#ffffff" stop-opacity="0" id="stop3253" offset="1"/>
  </linearGradient>
  <linearGradient id="linearGradient2439">
   <stop stop-color="#ffff00" id="stop2441" offset="0"/>
   <stop stop-color="#ffd400" offset="0.5" id="stop2451"/>
   <stop stop-color="#ffa900" id="stop2443" offset="1"/>
  </linearGradient>
  <linearGradient id="linearGradient2429">
   <stop stop-color="#fffdbc" id="stop2431" offset="0"/>
   <stop stop-color="#fcff00" id="stop2433" offset="1"/>
  </linearGradient>
  <radialGradient r="216.79578" fy="404.3631" fx="377.14288" cy="404.3631" cx="377.14288" gradientTransform="matrix(1.26528e-07, -1.00078, 1.05272, 1.32511e-07, -138.049, 659.088)" gradientUnits="userSpaceOnUse" id="radialGradient2731" xlink:href="#linearGradient2429"/>
  <linearGradient y2="1.073563" x2="0.625306" y1="-0.001665" x1="0.625306" id="linearGradient2733" xlink:href="#linearGradient3272"/>
  <radialGradient r="128.57143" fy="440.96008" fx="-468.77777" cy="440.96008" cx="-468.77777" gradientTransform="matrix(-0.0147018, 0.728788, -0.712941, -0.0143822, 1369.18, 689.651)" gradientUnits="userSpaceOnUse" id="radialGradient2735" xlink:href="#linearGradient2439"/>
  <linearGradient y2="1.00001" x2="0.629861" y1="0.099829" x1="0.503832" id="linearGradient2737" xlink:href="#linearGradient3249"/>
  <linearGradient y2="0.903219" x2="0.500002" y1="-0.204373" x1="0.408737" id="linearGradient4183" xlink:href="#linearGradient3359"/>
 </defs>
 <metadata id="metadata7">image/svg+xml</metadata>
 <g>
  <title>Layer 1</title>
  <g id="layer1">
   <g transform="matrix(0.984226, 0, 0, 0.993288, -149.193, -152.676)" id="g2719">
    <path fill="#ffbb00" fill-rule="evenodd" stroke-width="1px" marker-start="none" marker-mid="none" marker-end="none" stroke-miterlimit="4" stroke-dashoffset="0" d="m545.733643,611.804932c-0.591064,0.635193 -78.263519,-36.445313 -78.967102,-35.937683c-0.703583,0.507629 9.99411,85.909851 9.205017,86.270447c-0.789124,0.360657 -58.359039,-63.621277 -59.203339,-63.421509c-0.844299,0.199707 -23.642944,83.194946 -24.509979,83.226135c-0.867035,0.031189 -29.569916,-81.11145 -30.426392,-81.25c-0.856445,-0.138611 -53.680573,67.814331 -54.4935,67.511353c-0.812988,-0.302979 3.720947,-86.253113 2.982697,-86.708923c-0.738251,-0.45575 -75.545731,42.109619 -76.180893,41.518616c-0.635132,-0.591064 36.445328,-78.26355 35.937698,-78.967102c-0.507629,-0.703613 -85.909805,9.99408 -86.270432,9.205017c-0.360626,-0.789124 63.621277,-58.358978 63.421539,-59.203278c-0.199738,-0.844299 -83.194916,-23.642944 -83.226105,-24.509949c-0.031189,-0.867065 81.11142,-29.569946 81.249969,-30.426392c0.13858,-0.856445 -67.814331,-53.680542 -67.511353,-54.49353c0.302979,-0.812988 86.253067,3.721008 86.708878,2.982727c0.45575,-0.73822 -42.109634,-75.545776 -41.5186,-76.180908c0.591064,-0.635132 78.263535,36.445374 78.967087,35.937683c0.703613,-0.507629 -9.99408,-85.909821 -9.205017,-86.270416c0.789124,-0.360626 58.35907,63.621246 59.203369,63.421539c0.844299,-0.199768 23.642944,-83.194992 24.509979,-83.226181c0.867035,-0.031189 29.569916,81.111496 30.426392,81.250046c0.856445,0.13855 53.680542,-67.814407 54.4935,-67.511398c0.812988,0.302979 -3.720947,86.253159 -2.982727,86.708908c0.738251,0.45575 75.545807,-42.109619 76.180939,-41.518616c0.635132,0.591064 -36.445374,78.26355 -35.937744,78.967163c0.50766,0.703552 85.90979,-9.994141 86.270508,-9.205017c0.360596,0.789124 -63.621338,58.35907 -63.421509,59.203308c0.199707,0.844299 83.194824,23.642944 83.226074,24.51001c0.031128,0.867004 -81.11145,29.569885 -81.25,30.426392c-0.13855,0.856445 67.814331,53.680389 67.511353,54.493378c-0.302979,0.812988 -86.253143,-3.720947 -86.708862,-2.982727c-0.45578,0.738281 42.109619,75.545776 41.518555,76.180908z" id="path2721"/>
    <path fill="url(#radialGradient2731)" fill-rule="evenodd" stroke-width="1px" marker-start="none" marker-mid="none" marker-end="none" stroke-miterlimit="4" stroke-dashoffset="0" id="path2723" d="m534.10144,600.98053c-0.489624,0.526123 -66.752106,-25.533813 -67.3349,-25.113281c-0.582794,0.420471 3.254181,71.519836 2.600555,71.818481c-0.653625,0.298706 -51.899536,-49.13501 -52.598877,-48.969543c-0.699371,0.165405 -24.362976,67.320984 -25.081177,67.346863c-0.718201,0.025818 -29.145752,-65.255981 -29.855194,-65.370728c-0.709412,-0.114807 -48.271088,52.873169 -48.944489,52.622192c-0.673401,-0.250977 -1.954803,-71.4422 -2.566315,-71.819763c-0.611481,-0.377502 -64.830338,30.375916 -65.35643,29.886353c-0.526123,-0.489563 25.533707,-66.752075 25.113235,-67.334839c-0.420471,-0.582825 -71.519791,3.25415 -71.818497,2.600525c-0.298706,-0.653625 49.13504,-51.899445 48.969604,-52.598785c-0.165466,-0.699341 -67.321014,-24.362976 -67.346863,-25.081177c-0.025848,-0.718201 65.255951,-29.145752 65.370728,-29.855164c0.114777,-0.709412 -52.873199,-48.271118 -52.622223,-48.944519c0.250946,-0.673401 71.442184,-1.954773 71.819748,-2.566284c0.377502,-0.611511 -30.375931,-64.830383 -29.886337,-65.356506c0.489563,-0.526062 66.75206,25.533813 67.334824,25.113281c0.582825,-0.420471 -3.25415,-71.519775 -2.600525,-71.818481c0.653625,-0.298706 51.899536,49.13501 52.598877,48.969604c0.699371,-0.165466 24.362976,-67.321045 25.081177,-67.346893c0.718201,-0.025848 29.145752,65.255951 29.855194,65.370758c0.709412,0.114746 48.271088,-52.873199 48.944489,-52.622223c0.673401,0.250977 1.954803,71.44223 2.566284,71.819733c0.611511,0.377502 64.830353,-30.375916 65.356476,-29.886353c0.526123,0.489563 -25.533752,66.752075 -25.113281,67.3349c0.420502,0.582764 71.519775,-3.254211 71.818481,-2.600586c0.298706,0.653625 -49.13501,51.899536 -48.969482,52.598877c0.165405,0.699402 67.320923,24.362976 67.346802,25.081177c0.025757,0.718201 -65.255981,29.145752 -65.370728,29.855225c-0.114746,0.709412 52.873169,48.270966 52.622192,48.944366c-0.250977,0.673401 -71.44223,1.954773 -71.819702,2.566284c-0.377533,0.611511 30.375854,64.830383 29.886353,65.356506z"/>
    <path fill="url(#linearGradient2733)" fill-rule="evenodd" stroke-width="1px" marker-start="none" marker-mid="none" marker-end="none" stroke-miterlimit="4" stroke-dashoffset="0" id="path2725" d="m379.9729,301.993744c-7.114899,-0.332275 -13.620636,3.99646 -16.062469,10.6875c-0.393005,1.073853 -0.970825,2.611938 -1.34375,3.625c-1.164459,3.163147 -2.1521,5.796204 -2.90625,7.75c-0.426086,1.103882 -0.685852,1.779785 -0.9375,2.375c-0.115601,0.273376 -0.061218,0.177002 -0.4375,0.9375c-0.53241,1.07605 0.011505,0.069946 -0.4375,0.78125c-0.575562,0.911682 0.033264,0.08374 -0.6875,0.90625c-1.021027,1.165039 -0.95639,1.142761 -1.21875,1.46875c-0.428833,0.170105 -1.036316,0.418457 -2.4375,0.75c-1.390076,0.328857 -2.009521,0.39679 -2.46875,0.4375c-0.3797,-0.174011 -0.323669,-0.188293 -1.78125,-0.78125c-1.020752,-0.415283 -0.128906,0.04425 -1.03125,-0.5c-0.784973,-0.473511 0.073303,0.097473 -0.71875,-0.5c-0.597839,-0.45105 -0.437866,-0.336975 -0.8125,-0.65625c-0.529907,-0.451599 -1.063232,-0.921875 -1.90625,-1.6875c-1.55896,-1.415955 -3.638977,-3.324524 -6.09375,-5.625c-0.52655,-0.493469 -1.723145,-1.693909 -2.8125,-2.71875c-4.825439,-4.540161 -11.919922,-5.705383 -17.944092,-2.947205c-6.024109,2.758179 -9.777527,8.890259 -9.493408,15.509705c0.047119,1.120605 0.110229,2.78894 0.15625,3.9375c0.137878,3.439697 0.263916,6.293335 0.3125,8.28125c0.024811,1.015076 0.037231,1.661255 0.03125,2.5c-0.005676,0.791931 0.007416,0.483154 -0.03125,1.0625c-0.05365,0.804077 0.039368,-0.05011 -0.125,0.90625c-0.187073,1.088257 0.074768,0.04303 -0.28125,1.09375c-0.496338,1.464722 -0.443024,1.40509 -0.5625,1.8125c-0.326965,0.318542 -0.79364,0.777161 -1.96875,1.625c-1.152924,0.831787 -1.721008,1.132751 -2.125,1.343689c-0.435425,-0.015015 -0.35553,-0.04071 -1.90625,-0.031189c-1.175842,0.007141 -0.288391,0.06897 -1.15625,-0.0625c-0.815887,-0.123657 0.303223,0.086975 -0.875,-0.21875c-0.716736,-0.186035 -0.534424,-0.130371 -1,-0.28125c-0.677368,-0.219543 -1.345032,-0.462402 -2.40625,-0.84375c-1.943054,-0.698303 -4.576172,-1.678101 -7.75,-2.875c-0.907959,-0.342468 -2.465698,-0.923401 -3.65625,-1.375c-6.187439,-2.345337 -13.178894,-0.714783 -17.690369,4.125854c-4.511536,4.840576 -5.646606,11.929321 -2.872131,17.936584c0.52002,1.121155 1.237549,2.624084 1.65625,3.53125c1.426147,3.090332 2.578369,5.661072 3.40625,7.53125c0.484863,1.095398 0.79541,1.762024 1.03125,2.34375c0.144043,0.355469 0.085815,0.204895 0.34375,0.96875c0.408752,1.210632 0.106506,0.101074 0.28125,0.875c0.273071,1.209656 0.086243,0.028259 0.15625,1.09375c0.100464,1.530029 0.111877,1.461365 0.15625,1.875c-0.18158,0.423279 -0.452515,1.0401 -1.21875,2.28125c-0.756836,1.225891 -1.141235,1.740723 -1.4375,2.09375c-0.389709,0.145203 -0.343933,0.081177 -1.78125,0.6875c-0.969849,0.40918 0.127075,0.049133 -1.0625,0.34375c-0.961182,0.238098 -0.135315,0.083862 -0.875,0.1875c-0.69928,0.098022 -0.499756,0.048767 -1.0625,0.09375c-0.791138,0.063293 -1.487915,0.105957 -2.53125,0.15625c-2.010193,0.096985 -4.85849,0.20105 -8.281189,0.3125c-1.080933,0.035217 -2.738358,0.089233 -3.906265,0.125c-6.623444,0.197937 -12.466919,4.388184 -14.779297,10.598022c-2.312378,6.209778 -0.632782,13.201477 4.248016,17.683228c0.971558,0.893616 2.204315,2.005737 2.875,2.625c2.525665,2.332092 4.619537,4.250244 6.0625,5.625c0.66861,0.636963 1.194733,1.15387 1.843781,1.8125c0.504639,0.512207 0.30426,0.276001 0.71875,0.75c0.869507,0.994446 0.062988,0.024536 0.53125,0.6875c0.488647,0.691895 0.069031,-0.063232 0.59375,1c0.704849,1.428284 0.705093,1.353333 0.906265,1.71875c-0.007202,0.457642 -0.053589,1.09259 -0.28125,2.5c-0.226929,1.40271 -0.392776,1.99646 -0.531265,2.4375c-0.300659,0.27771 -0.28241,0.237305 -1.40625,1.375c-0.769714,0.779236 0.07196,0.044067 -0.84375,0.71875c-0.659729,0.486145 0.337952,-0.139526 -0.75,0.5c-0.549591,0.323059 -0.328522,0.189209 -0.937531,0.5c-0.7435,0.379517 -1.368103,0.663513 -2.28125,1.09375c-1.90033,0.895447 -4.462616,2.081055 -7.53125,3.46875c-0.860229,0.389038 -2.371094,1.071777 -3.53125,1.59375c-6.021179,2.727661 -9.797058,8.823547 -9.55722,15.429382c0.239838,6.605835 4.447845,12.411804 10.65097,14.695618c1.189148,0.43573 2.751434,1.010254 3.65625,1.343811c3.141296,1.157837 5.729584,2.137512 7.71875,2.90625c1.114777,0.430786 1.791779,0.690613 2.375031,0.9375c0.524536,0.221985 0.346985,0.129517 0.96875,0.4375c1.09021,0.539917 0.076111,-0.007935 0.78125,0.4375c0.716614,0.452698 -0.025879,-0.102356 0.875,0.6875c1.165665,1.021973 1.142471,0.956055 1.468765,1.21875c0.170105,0.42865 0.418579,1.036743 0.749985,2.4375c0.207886,0.878784 0.214722,1.077515 0.34375,2.53125c0.402466,4.565369 2.709518,8.75 6.355118,11.527405c3.645691,2.777344 8.292725,3.890503 12.801086,3.066345c73.58606,1.118713 163.070374,-27.819458 230.75,-70.625061c4.669281,-1.779846 8.263275,-5.604248 9.749969,-10.375c-0.185303,0.593689 -0.443115,1.483887 1,-2.0625c0.416992,-1.024475 -0.041504,-0.13385 0.5,-1.03125c0.476196,-0.789063 -0.091797,0.065369 0.5,-0.71875c0.296021,-0.392151 0.048096,-0.062561 0.6875,-0.8125c0.620972,-0.728149 1.047485,-1.205017 1.65625,-1.875c1.424194,-1.567078 3.329956,-3.64624 5.625,-6.09375c0.651978,-0.695313 1.816895,-1.918823 2.6875,-2.84375c4.540161,-4.825378 5.705444,-11.919922 2.947266,-17.944031c-2.758301,-6.024109 -8.890259,-9.777527 -15.509766,-9.493469c-1.427368,0.059387 -3.096802,0.156677 -3.875,0.1875c-3.350616,0.132935 -6.159882,0.230347 -8.281219,0.28125c-1.019714,0.024536 -1.708862,0.037537 -2.53125,0.03125c-0.804993,-0.006042 -0.439148,0.008545 -1.03125,-0.03125c-0.826172,-0.055481 0.073242,0.038391 -0.875,-0.125c-1.107117,-0.190735 -0.082764,0.072388 -1.125,-0.28125c-1.476624,-0.500977 -1.40918,-0.444519 -1.8125,-0.5625c-0.31842,-0.326721 -0.778564,-0.795593 -1.625,-1.96875c-0.843262,-1.168762 -1.136475,-1.725525 -1.34375,-2.125c0.014954,-0.435669 0.041199,-0.355774 0.03125,-1.90625c-0.007507,-1.168152 -0.070984,-0.272949 0.0625,-1.15625c0.117126,-0.774963 -0.132935,0.513611 0.21875,-0.84375c0.183533,-0.708435 0.125427,-0.518616 0.28125,-1c0.246521,-0.761719 0.49353,-1.46167 0.84375,-2.4375c0.69165,-1.927063 1.675659,-4.565857 2.875,-7.75c0.294067,-0.78064 0.88562,-2.333313 1.375,-3.625c2.356384,-6.195068 0.724243,-13.200134 -4.127625,-17.715759c-4.851868,-4.515625 -11.955994,-5.641235 -17.966156,-2.84668c-1.108917,0.514832 -2.609253,1.230286 -3.53125,1.65625c-3.042908,1.405701 -5.589691,2.545837 -7.53125,3.40625c-1.0849,0.480713 -1.750244,0.790344 -2.34375,1.03125c-0.340485,0.138184 -0.196991,0.082825 -0.96875,0.34375c-1.392975,0.470886 -0.111359,0.115601 -0.84375,0.28125c-1.097717,0.24823 -0.041016,0.084717 -1.125,0.15625c-1.530609,0.100952 -1.461487,0.111755 -1.875,0.15625c-0.42337,-0.181702 -1.038849,-0.451782 -2.28125,-1.21875c-1.220825,-0.753723 -1.712036,-1.143311 -2.0625,-1.4375c-0.146301,-0.394104 -0.107178,-0.329956 -0.71875,-1.78125c-0.412354,-0.978699 -0.054535,0.076111 -0.34375,-1.09375c-0.239685,-0.969666 -0.087372,-0.158386 -0.1875,-0.875c-0.09906,-0.709106 -0.050537,-0.487732 -0.09375,-1.03125c-0.066132,-0.832336 -0.107697,-1.51532 -0.15625,-2.53125c-0.096954,-2.029846 -0.202881,-4.869202 -0.3125,-8.28125c-0.035248,-1.097656 -0.09024,-2.755493 -0.125,-3.90625c-0.197876,-6.623413 -4.388153,-12.466919 -10.597961,-14.779297c-6.209808,-2.312378 -13.201477,-0.632813 -17.683289,4.248047c-0.896637,0.974792 -1.996338,2.196716 -2.59375,2.84375c-2.332031,2.525635 -4.250214,4.619507 -5.625,6.0625c-0.636932,0.668518 -1.153809,1.194702 -1.8125,1.84375c-0.512146,0.504639 -0.27597,0.304199 -0.75,0.71875c-0.994385,0.869507 -0.024475,0.062988 -0.6875,0.53125c-0.691833,0.488586 0.063263,0.06897 -1,0.59375c-1.428253,0.704834 -1.353302,0.705078 -1.71875,0.90625c-0.457611,-0.007202 -1.092529,-0.053589 -2.5,-0.28125c-1.402222,-0.226868 -1.996552,-0.392822 -2.4375,-0.53125c-0.278015,-0.300964 -0.236298,-0.281921 -1.375,-1.40625c-0.774841,-0.765137 -0.037445,0.080261 -0.71875,-0.84375c-0.482147,-0.653992 0.14798,0.351379 -0.5,-0.75c-0.319061,-0.542358 -0.182007,-0.315125 -0.5,-0.9375c-0.442596,-0.866394 -0.744751,-1.443848 -1.125,-2.25c-0.861664,-1.826965 -2.027069,-4.44696 -3.4375,-7.5625c-0.383392,-0.846985 -1.065155,-2.357666 -1.59375,-3.53125c-2.510742,-5.587708 -7.944,-9.294373 -14.0625,-9.59375l0,0z"/>
    <path fill="url(#radialGradient2735)" fill-rule="evenodd" stroke-width="1px" marker-start="none" marker-mid="none" marker-end="none" stroke-miterlimit="4" stroke-dashoffset="0" filter="url(#filter3227)" d="m492.904388,461.612579a108.57135,108.57135 0 1 1 -217.1427,0a108.57135,108.57135 0 1 1 217.1427,0z" id="path2727"/>
    <path fill="url(#linearGradient2737)" fill-rule="evenodd" stroke-width="1px" marker-start="none" marker-mid="none" marker-end="none" stroke-miterlimit="4" stroke-dashoffset="0" d="m376.26651,364.871674c-39.28363,0 -73.453857,27.634766 -82.1875,64.65625c-2.22113,9.409302 -0.399902,19.318787 5.021667,27.323425c5.42157,8.0047 13.947845,13.372803 23.509583,14.801575c8.413422,1.249878 17.928986,1.418701 30.75,0.5625c23.024078,-1.537598 48.513397,-7.690979 75.8125,-16.1875c10.161041,-3.164124 18.297943,-10.832764 22.058075,-20.788635c3.760162,-9.955811 2.724304,-21.088867 -2.808075,-30.180115c-14.715149,-24.160767 -42.052643,-40.1875 -72.15625,-40.1875z" id="path2729"/>
   </g>
   <g transform="matrix(0.464478, 0, 0, 0.464478, 361.566, 166.761)" id="g2757"/>
   <path fill="url(#linearGradient4183)" fill-rule="evenodd" stroke-width="1px" marker-start="none" marker-mid="none" marker-end="none" stroke-miterlimit="4" stroke-dashoffset="0" d="m328.993958,467.613007c-13.232452,0 -25.173431,6.43338 -32.571503,16.155121c-1.286163,1.692657 -3.338776,2.494324 -5.428619,2.104675c-1.515961,-0.283325 -3.086823,-0.435455 -4.70282,-0.435455c-13.506226,0 -25.415649,11.909424 -25.415649,25.41568c0,1.778442 0.133911,2.384827 0.087067,1.640198c0.404968,6.376404 5.053467,11.68042 11.321655,12.918274c14.89624,2.946594 35.090179,1.616211 59.090332,-4.339966c19.366699,-4.806335 40.209961,-12.156647 60.904663,-20.437042c4.637665,-1.859619 7.942047,-6.0383 8.682526,-10.979736c0.740479,-4.941467 -1.193939,-9.905121 -5.082825,-13.04248c-6.953583,-5.59903 -15.959747,-8.999268 -25.60434,-8.999268c-6.480133,0 -12.735168,1.548065 -18.172699,4.252899c-1.56601,0.778961 -3.369049,0.778961 -4.935089,0c-5.4375,-2.704834 -11.692535,-4.252899 -18.172699,-4.252899z" id="path4037"/>
  </g>
 </g>
</svg>